<svg width="20" height="21" viewBox="0 0 20 21" fill="none" xmlns="http://www.w3.org/2000/svg">
<rect x="0.5" y="1" width="19" height="19" rx="9.5" fill="#29CC6A"/>
<path d="M9.44627 14.1545C9.36036 14.2409 9.24315 14.2892 9.12139 14.2892C8.99964 14.2892 8.88242 14.2409 8.79651 14.1545L6.20194 11.5595C5.93269 11.2903 5.93269 10.8537 6.20194 10.5849L6.52682 10.2599C6.79617 9.99068 7.23228 9.99068 7.50154 10.2599L9.12139 11.8799L13.4985 7.50273C13.7678 7.23347 14.2043 7.23347 14.4732 7.50273L14.7981 7.82769C15.0673 8.09695 15.0673 8.53349 14.7981 8.80232L9.44627 14.1545Z" fill="white"/>
<rect x="0.5" y="1" width="19" height="19" rx="9.5" stroke="white"/>
</svg>
