<svg width="16" height="16" viewBox="0 0 16 16" fill="none" xmlns="http://www.w3.org/2000/svg">
<path d="M13.725 2.55033C13.6412 2.51031 13.548 2.49381 13.4556 2.50262C13.3631 2.51143 13.2748 2.5452 13.2 2.60033C11.4312 3.92533 9.93125 3.28783 8.2 2.54408C6.46875 1.80033 4.43125 0.925332 2.2 2.60033C2.1379 2.64691 2.0875 2.7073 2.05279 2.77673C2.01807 2.84615 2 2.92271 2 3.00033V13.5003C2 13.6329 2.05268 13.7601 2.14645 13.8539C2.24021 13.9477 2.36739 14.0003 2.5 14.0003C2.63261 14.0003 2.75979 13.9477 2.85355 13.8539C2.94732 13.7601 3 13.6329 3 13.5003V10.7566C4.68125 9.62533 6.13125 10.2441 7.8 10.9628C8.81875 11.3941 9.9125 11.8628 11.0875 11.8628C11.95 11.8628 12.8562 11.6128 13.8 10.9003C13.8617 10.8534 13.9119 10.793 13.9466 10.7236C13.9812 10.6543 13.9995 10.5779 14 10.5003V3.00033C13.9992 2.90744 13.9733 2.81651 13.9248 2.73725C13.8764 2.65798 13.8073 2.59338 13.725 2.55033ZM9.75 10.6441V7.30033C8.56875 6.96283 7.43125 6.30658 6.25 5.96908V9.31908C5.23125 9.05658 4.15 9.01908 3 9.60033V6.30033C4.14375 5.63783 5.2125 5.67533 6.25 5.96908V2.85658C6.77735 3.03022 7.29479 3.2326 7.8 3.46283C8.425 3.72533 9.075 4.00658 9.75 4.18158V7.30033C10.7875 7.59408 11.8562 7.63158 13 6.96908V10.2441C11.8562 11.0128 10.8188 10.9753 9.75 10.6441Z" fill="white"/>
</svg>
