<?xml version="1.0" encoding="UTF-8" standalone="no"?><!-- Generator: Gravit.io --><svg xmlns="http://www.w3.org/2000/svg" xmlns:xlink="http://www.w3.org/1999/xlink" style="isolation:isolate" viewBox="0 0 16 16.2" width="16pt" height="16.2pt"><defs><clipPath id="_clipPath_J1WOt7PQry4avYMAifiXnSzP2DGY2fT3"><rect width="16" height="16.2"/></clipPath></defs><g clip-path="url(#_clipPath_J1WOt7PQry4avYMAifiXnSzP2DGY2fT3)"><clipPath id="_clipPath_jmHOXQ13wreb3P7opCIoulO8hOJ1S5HC"><rect x="0" y="0" width="16" height="16.2" transform="matrix(1,0,0,1,0,0)" fill="rgb(255,255,255)"/></clipPath><g clip-path="url(#_clipPath_jmHOXQ13wreb3P7opCIoulO8hOJ1S5HC)"><g><clipPath id="_clipPath_PfBZcuhqN3WAwBcivVxFX4IjFLUb4Fwp"><path d=" M -32 -32.4 L 32 -32.4 L 32 32.4 L -32 32.4 L -32 -32.4 Z  M 8 13.254 L 4.824 15.04 C 4.335 15.315 3.72 15.135 3.45 14.637 C 3.341 14.436 3.301 14.202 3.337 13.974 L 3.957 10.111 L 1.287 7.327 C 0.897 6.92 0.905 6.269 1.305 5.872 C 1.456 5.722 1.649 5.624 1.858 5.592 L 5.501 5.025 L 7.085 1.592 C 7.322 1.078 7.924 0.856 8.429 1.098 C 8.643 1.2 8.815 1.374 8.915 1.592 L 10.499 5.025 L 14.142 5.592 C 14.694 5.677 15.073 6.202 14.988 6.764 C 14.956 6.976 14.86 7.173 14.712 7.327 L 12.043 10.111 L 12.662 13.974 C 12.752 14.535 12.379 15.064 11.828 15.155 C 11.604 15.192 11.374 15.152 11.176 15.04 L 8 13.254 L 8 13.254 Z " fill-rule="evenodd" fill="rgb(255,255,255)"/></clipPath><g clip-path="url(#_clipPath_PfBZcuhqN3WAwBcivVxFX4IjFLUb4Fwp)"><mask id="_mask_AFdOcEC7zO76U4gKlHYYeVixCKJxEOYf" x="-200%" y="-200%" width="400%" height="400%"><rect x="-200%" y="-200%" width="400%" height="400%" style="fill:white;"/><path d=" M 8 13.254 L 4.824 15.04 C 4.335 15.315 3.72 15.135 3.45 14.637 C 3.341 14.436 3.301 14.202 3.337 13.974 L 3.957 10.111 L 1.287 7.327 C 0.897 6.92 0.905 6.269 1.305 5.872 C 1.456 5.722 1.649 5.624 1.858 5.592 L 5.501 5.025 L 7.085 1.592 C 7.322 1.078 7.924 0.856 8.429 1.098 C 8.643 1.2 8.815 1.374 8.915 1.592 L 10.499 5.025 L 14.142 5.592 C 14.694 5.677 15.073 6.202 14.988 6.764 C 14.956 6.976 14.86 7.173 14.712 7.327 L 12.043 10.111 L 12.662 13.974 C 12.752 14.535 12.379 15.064 11.828 15.155 C 11.604 15.192 11.374 15.152 11.176 15.04 L 8 13.254 L 8 13.254 Z " fill-rule="evenodd" fill="black" stroke="none"/></mask><path d=" M 8 13.254 L 4.824 15.04 C 4.335 15.315 3.72 15.135 3.45 14.637 C 3.341 14.436 3.301 14.202 3.337 13.974 L 3.957 10.111 L 1.287 7.327 C 0.897 6.92 0.905 6.269 1.305 5.872 C 1.456 5.722 1.649 5.624 1.858 5.592 L 5.501 5.025 L 7.085 1.592 C 7.322 1.078 7.924 0.856 8.429 1.098 C 8.643 1.2 8.815 1.374 8.915 1.592 L 10.499 5.025 L 14.142 5.592 C 14.694 5.677 15.073 6.202 14.988 6.764 C 14.956 6.976 14.86 7.173 14.712 7.327 L 12.043 10.111 L 12.662 13.974 C 12.752 14.535 12.379 15.064 11.828 15.155 C 11.604 15.192 11.374 15.152 11.176 15.04 L 8 13.254 L 8 13.254 Z " fill-rule="evenodd" fill="rgb(253,216,53)" mask="url(#_mask_AFdOcEC7zO76U4gKlHYYeVixCKJxEOYf)" vector-effect="non-scaling-stroke" stroke-width="2" stroke="rgb(155,155,155)" stroke-opacity="100" stroke-linejoin="miter" stroke-linecap="butt" stroke-miterlimit="4"/><path d=" M 8 13.254 L 4.824 15.04 C 4.335 15.315 3.72 15.135 3.45 14.637 C 3.341 14.436 3.301 14.202 3.337 13.974 L 3.957 10.111 L 1.287 7.327 C 0.897 6.92 0.905 6.269 1.305 5.872 C 1.456 5.722 1.649 5.624 1.858 5.592 L 5.501 5.025 L 7.085 1.592 C 7.322 1.078 7.924 0.856 8.429 1.098 C 8.643 1.2 8.815 1.374 8.915 1.592 L 10.499 5.025 L 14.142 5.592 C 14.694 5.677 15.073 6.202 14.988 6.764 C 14.956 6.976 14.86 7.173 14.712 7.327 L 12.043 10.111 L 12.662 13.974 C 12.752 14.535 12.379 15.064 11.828 15.155 C 11.604 15.192 11.374 15.152 11.176 15.04 L 8 13.254 L 8 13.254 Z " fill-rule="evenodd" fill="rgb(253,216,53)"/></g><path d=" M 8 13.254 L 4.824 15.04 C 4.335 15.315 3.72 15.135 3.45 14.637 C 3.341 14.436 3.301 14.202 3.337 13.974 L 3.957 10.111 L 1.287 7.327 C 0.897 6.92 0.905 6.269 1.305 5.872 C 1.456 5.722 1.649 5.624 1.858 5.592 L 5.501 5.025 L 7.085 1.592 C 7.322 1.078 7.924 0.856 8.429 1.098 C 8.643 1.2 8.815 1.374 8.915 1.592 L 10.499 5.025 L 14.142 5.592 C 14.694 5.677 15.073 6.202 14.988 6.764 C 14.956 6.976 14.86 7.173 14.712 7.327 L 12.043 10.111 L 12.662 13.974 C 12.752 14.535 12.379 15.064 11.828 15.155 C 11.604 15.192 11.374 15.152 11.176 15.04 L 8 13.254 L 8 13.254 Z " fill-rule="evenodd" fill="rgb(74,74,74)"/></g></g></g></svg>